<!-- Generated by IcoMoon.io -->
<svg version="1.1" xmlns="http://www.w3.org/2000/svg" width="18" height="32" viewBox="0 0 18 32">
<title>smartphone</title>
<path fill="#757575" d="M16 0h-9.739c-1.151 0-2.087 0.936-2.087 2.087v18.087c0 1.151 0.936 2.087 2.087 2.087h9.739c1.151 0 2.087-0.936 2.087-2.087v-18.087c0-1.151-0.936-2.087-2.087-2.087zM6.261 1.391h9.739c0.384 0 0.696 0.312 0.696 0.696v14.609h-11.13v-14.609c0-0.384 0.312-0.696 0.696-0.696zM16 20.87h-9.739c-0.384 0-0.696-0.312-0.696-0.696v-2.087h11.13v2.087c0 0.384-0.312 0.696-0.696 0.696z"></path>
<path fill="#757575" d="M7.448 19.115c0.272 0.254 0.272 0.665 0 0.919s-0.712 0.254-0.984 0c-0.272-0.254-0.272-0.665 0-0.919s0.712-0.254 0.984 0z"></path>
</svg>
